<?xml version="1.0" encoding="utf-8"?>
<!-- Generator: Adobe Illustrator 23.0.6, SVG Export Plug-In . SVG Version: 6.00 Build 0)  -->
<svg version="1.1" id="Layer_1" xmlns="http://www.w3.org/2000/svg" xmlns:xlink="http://www.w3.org/1999/xlink" x="0px" y="0px"
	 viewBox="0 0 1073 216" style="enable-background:new 0 0 1073 216;" xml:space="preserve">
<style type="text/css">
	.st0{fill:#FFFFFF;}
</style>
<g>
	<path class="st0" d="M120.69,28.31v-7.77h6.71c3.7,0,6.71-3,6.71-6.71V7.13c0-3.7-3-6.71-6.71-6.71H87.17c-3.7,0-6.71,3-6.71,6.71
		v6.71c0,3.7,3,6.71,6.71,6.71h6.71v7.77c-45.47,6.53-80.46,45.53-80.46,92.81h187.75C201.16,73.84,166.17,34.84,120.69,28.31z
		 M207.86,134.53H6.71c-3.7,0-6.71,3-6.71,6.71v13.41c0,3.7,3,6.71,6.71,6.71h201.16c3.7,0,6.71-3,6.71-6.71v-13.41
		C214.57,137.53,211.57,134.53,207.86,134.53z"/>
	<g>
		<path class="st0" d="M390.58,137.16c-17,17.58-37.52,26.36-61.55,26.36c-17.22,0-31.33-5.4-42.34-16.19
			c-11.01-10.8-16.52-24.66-16.52-41.59c0-16.86,3.98-32.89,11.94-48.1c7.96-15.21,18.38-27.37,31.26-36.48
			c12.88-9.11,25.52-13.67,37.93-13.67c10.4,0,18.88,3.12,25.45,9.36s9.85,14.35,9.85,24.32c0,12.98-3.96,24.23-11.89,33.73
			c-7.93,9.51-17.2,14.26-27.82,14.26c-5.6,0-10.19-1.43-13.77-4.3c-3.59-2.87-5.38-6.56-5.38-11.08c0-3.87,1.54-7.46,4.63-10.76
			c2.3,4.23,5.45,6.35,9.47,6.35c5.74,0,11.06-3.59,15.98-10.76c4.91-7.17,7.37-15.03,7.37-23.57c0-5.95-1.38-10.69-4.14-14.2
			c-2.76-3.51-6.44-5.27-11.03-5.27c-6.67,0-13.79,4.16-21.36,12.48c-7.57,8.32-13.88,19.01-18.94,32.07
			c-5.06,13.06-7.59,25.47-7.59,37.23c0,14.99,4.25,27.3,12.75,36.91c8.5,9.61,19.32,14.42,32.44,14.42
			c8.32,0,15.82-1.93,22.49-5.78c6.67-3.86,13.59-9.89,20.77-18.1V137.16z"/>
		<path class="st0" d="M487.1,137.05c-3.66,3.23-7.21,5.51-10.65,6.83c-3.44,1.33-6.17,1.99-8.18,1.99
			c-5.17,0-10.29-2.01-15.39-6.03c-10.33,15.64-22.17,23.46-35.51,23.46c-8.32,0-15.06-3.12-20.23-9.36
			c-5.17-6.24-7.75-14.53-7.75-24.86c0-16.36,5.81-30.4,17.43-42.13c11.62-11.73,25.5-17.59,41.64-17.59c6.1,0,10.56,0.66,13.4,1.99
			c2.83,1.33,4.57,2.89,5.22,4.68c0.65,1.79,0.97,4.05,0.97,6.78c0,13.42-3.66,29.88-10.98,49.39c3.66,3.37,7.5,5.06,11.51,5.06
			c4.8,0,10.98-4.2,18.51-12.59V137.05z M451.59,76.9c-1.08-0.43-2.62-0.65-4.63-0.65c-9.33,0-16.62,4.88-21.9,14.63
			c-5.27,9.76-7.91,21.16-7.91,34.22c0,7.25,1.15,12.88,3.44,16.89c2.29,4.02,5.49,6.03,9.58,6.03c5.09,0,10.62-4.7,16.57-14.1
			c-6.74-8.46-10.11-17.57-10.11-27.33C436.63,95.12,441.62,85.22,451.59,76.9z"/>
		<path class="st0" d="M592.66,137.05c-16.57,17.5-30.77,26.25-42.61,26.25c-4.81,0-8.68-1.69-11.62-5.06
			c-2.94-3.37-4.41-7.89-4.41-13.56c0-7.68,3.16-19.4,9.47-35.19c3.37-8.46,5.06-13.84,5.06-16.14c0-2.29-0.9-3.44-2.69-3.44
			c-1.01,0-2.33,0.5-3.98,1.51c-1.51,1.01-3.27,2.4-5.27,4.2c-1.79,1.65-3.8,3.66-6.03,6.03c-1.94,2.01-4.02,4.3-6.24,6.89
			l-6.03,6.99c-2.66,3.23-4.3,6.64-4.95,10.22c-1.08,6.1-1.79,11.69-2.15,16.79c-0.22,3.8-0.32,8.93-0.32,15.39l-23.78,5.6
			c-0.79-9.68-1.18-16.89-1.18-21.63c0-11.55,1.35-22.49,4.04-32.82c2.69-10.33,7.01-21.95,12.97-34.86l26.26-5.06
			c-5.52,14.85-9.15,26.54-10.87,35.08c11.76-13.13,21.09-22.22,28-27.28c6.91-5.06,13.05-7.59,18.42-7.59
			c3.65,0,6.7,1.38,9.13,4.14c2.43,2.76,3.65,6.21,3.65,10.37c0,6.88-3.08,18.21-9.25,33.99c-4.23,10.83-6.35,17.87-6.35,21.1
			c0,4.32,1.76,6.48,5.29,6.48c5.25,0,13.74-6.92,25.46-20.77V137.05z"/>
		<path class="st0" d="M673.04,137.05c-9.18,9.04-17.59,15.68-25.23,19.91c-7.64,4.23-15.62,6.35-23.94,6.35
			c-9.33,0-17.02-3.03-23.08-9.09c-6.06-6.06-9.09-13.75-9.09-23.08c0-15.28,5.58-29.39,16.73-42.34
			c11.15-12.95,23.22-19.42,36.21-19.42c6.38,0,11.58,1.78,15.6,5.33c4.02,3.55,6.03,8.16,6.03,13.83c0,2.01-0.38,3.52-1.13,4.52
			c-0.75,1.01-2.17,2.01-4.25,3.01l-12.48,5.92c-1.51,0.72-2.62,1.08-3.34,1.08c-1.01,0-1.51-0.72-1.51-2.15
			c0-0.57,0.22-2.46,0.65-5.65c0.43-3.19,0.65-5.15,0.65-5.86c0-3.16-0.66-5.7-1.99-7.64c-1.33-1.94-3.1-2.91-5.33-2.91
			c-5.24,0-10.03,3.87-14.37,11.62c-4.34,7.75-6.51,16.57-6.51,26.47c0,8.54,2.04,15.35,6.13,20.44c4.09,5.09,9.54,7.64,16.36,7.64
			c5.81,0,11.28-1.67,16.41-5c5.13-3.34,10.96-8.45,17.49-15.33V137.05z"/>
		<path class="st0" d="M725.98,137.05c-16.79,17.65-29.34,26.47-37.66,26.47c-4.59,0-8.47-2.35-11.62-7.05
			c-3.16-4.7-4.73-10.6-4.73-17.7c0-15.28,5.17-36.44,15.49-63.49l27.33-5.7h1.29l-10.76,33.68c-4.45,13.92-6.67,23.85-6.67,29.81
			c0,2.37,0.52,4.29,1.56,5.76c1.04,1.47,2.35,2.21,3.93,2.21c2.8,0,5.61-1.02,8.45-3.07c2.83-2.04,7.3-6.47,13.4-13.29V137.05z
			 M723.83,27.51c0,17.22-6.35,25.82-19.05,25.82c-6.17,0-11.44-1.86-15.82-5.6c4.16-6.31,7.39-13.41,9.68-21.31
			c5.67,3.52,10.22,5.27,13.67,5.27C716.19,31.7,720.02,30.3,723.83,27.51z"/>
		<path class="st0" d="M806.47,137.05c-9.11,8.97-17.29,15.59-24.53,19.85c-7.25,4.27-15.24,6.4-24,6.4
			c-9.76,0-17.63-3.12-23.62-9.36c-5.99-6.24-8.98-14.45-8.98-24.64c0-15.21,5.27-28.96,15.82-41.27
			c10.55-12.3,22.24-18.45,35.08-18.45c6.67,0,12.01,1.72,16.03,5.17c4.02,3.44,6.03,7.96,6.03,13.56
			c0,14.85-15.78,26.9-47.35,36.15c2.87,13.99,10.37,20.98,22.49,20.98c4.74,0,9.25-1.27,13.56-3.82c4.3-2.54,10.8-8.19,19.48-16.95
			V137.05z M750.08,117.14c18.36-5.17,27.55-14.71,27.55-28.62c0-6.89-2.51-10.33-7.53-10.33c-4.74,0-9.25,3.6-13.56,10.81
			C752.23,96.21,750.08,105.59,750.08,117.14z"/>
		<path class="st0" d="M886.95,137.05c-18.01,17.65-31.89,26.47-41.64,26.47c-4.38,0-8.07-1.85-11.08-5.54
			c-3.01-3.69-4.52-8.27-4.52-13.72c0-10.11,5.42-23.67,16.25-40.67c-5.31,2.73-11.12,4.63-17.43,5.7
			c-4.66,8.61-11.98,17.86-21.95,27.76h-2.47v-9.68c5.6-5.81,10.65-12.05,15.17-18.72c-6.17-2.73-9.25-6.78-9.25-12.16
			c0-5.52,1.88-11.42,5.65-17.7c3.77-6.28,8.95-9.42,15.55-9.42c5.6,0,8.39,2.87,8.39,8.61c0,4.52-1.61,10.98-4.84,19.37
			c11.91-1.29,22.31-10.4,31.2-27.33l9.79-0.43l-10.01,27.55c-4.16,11.62-6.85,19.53-8.07,23.73c-1.22,4.2-1.83,7.91-1.83,11.14
			c0,3.01,0.7,5.42,2.1,7.21c1.4,1.79,3.28,2.69,5.65,2.69c2.58,0,5.06-0.88,7.43-2.64c2.37-1.76,7.67-6.62,15.93-14.58V137.05z"/>
		<path class="st0" d="M992.62,137.05c-9.11,9.54-20,16.57-32.69,21.08c-5.96,18.58-13.51,32.9-22.66,42.94
			c-9.15,10.04-18.85,15.07-29.11,15.07c-5.6,0-10.12-1.76-13.56-5.27c-3.44-3.52-5.17-8.14-5.17-13.88
			c0-7.68,3.42-14.56,10.28-20.66c6.85-6.1,18.49-11.98,34.92-17.65l4.63-21.2c-6.89,7.75-12.84,13.43-17.86,17.05
			c-5.02,3.62-10.08,5.43-15.17,5.43c-5.96,0-10.83-2.8-14.63-8.39c-3.8-5.6-5.7-12.88-5.7-21.84c0-14.63,5.57-28.35,16.73-41.16
			c11.15-12.81,23-19.21,35.55-19.21c6.96,0,13.12,2.94,18.5,8.82c3.23-1.15,7.42-2.87,12.59-5.17l7.64-3.44h2.48
			c-2.79,8.47-4.94,16.72-6.44,24.75l-10.09,53.91c9.68-3.66,19.61-11.51,29.8-23.56V137.05z M932.36,168.15
			c-23.17,8.32-34.76,17.93-34.76,28.84c0,3.23,0.97,5.86,2.91,7.91c1.94,2.04,4.41,3.07,7.42,3.07c5.17,0,9.65-3.27,13.45-9.79
			C925.19,191.64,928.85,181.63,932.36,168.15z M923.32,140.6c5.09,0,9.61-3.01,13.56-9.04c3.94-6.03,7.01-13.66,9.2-22.92
			c2.19-9.25,3.28-15.67,3.28-19.26c0-3.37-0.84-6.15-2.53-8.34c-1.69-2.19-3.78-3.28-6.29-3.28c-7.6,0-14.24,5.13-19.91,15.39
			c-5.67,10.26-8.5,20.7-8.5,31.31c0,4.95,1.02,8.88,3.07,11.78C917.24,139.15,919.95,140.6,923.32,140.6z"/>
		<path class="st0" d="M1073,137.05c-9.11,8.97-17.29,15.59-24.53,19.85c-7.25,4.27-15.24,6.4-24,6.4c-9.76,0-17.63-3.12-23.62-9.36
			c-5.99-6.24-8.99-14.45-8.99-24.64c0-15.21,5.27-28.96,15.82-41.27c10.55-12.3,22.24-18.45,35.08-18.45
			c6.67,0,12.01,1.72,16.03,5.17c4.02,3.44,6.03,7.96,6.03,13.56c0,14.85-15.78,26.9-47.35,36.15
			c2.87,13.99,10.37,20.98,22.49,20.98c4.73,0,9.25-1.27,13.56-3.82c4.3-2.54,10.8-8.19,19.48-16.95V137.05z M1016.62,117.14
			c18.36-5.17,27.55-14.71,27.55-28.62c0-6.89-2.51-10.33-7.53-10.33c-4.74,0-9.25,3.6-13.56,10.81
			C1018.77,96.21,1016.62,105.59,1016.62,117.14z"/>
	</g>
</g>
</svg>
